<svg width="990" height="665" viewBox="0 0 990 665" fill="none" xmlns="http://www.w3.org/2000/svg">
<path d="M156.917 450.029V113.856H234.237V450.029H156.917Z" fill="#1D6FBB"/>
<path d="M414.27 455.792C379.692 455.792 349.116 448.428 322.542 433.701C296.289 418.653 275.638 398.163 260.59 372.229C245.542 345.976 238.019 315.88 238.019 281.943C238.019 248.005 245.542 218.07 260.59 192.136C275.638 165.883 296.289 145.392 322.542 130.664C349.116 115.617 379.692 108.093 414.27 108.093C435.721 108.093 455.091 111.294 472.38 117.698C489.989 123.781 505.357 132.265 518.483 143.151C531.61 154.036 542.496 166.523 551.14 180.61L487.267 219.03C482.465 211.346 476.062 204.463 468.057 198.379C460.373 192.296 451.889 187.654 442.604 184.452C433.319 180.93 423.875 179.169 414.27 179.169C395.38 179.169 378.571 183.492 363.844 192.136C349.436 200.781 338.07 212.947 329.746 228.635C321.422 244.003 317.26 261.772 317.26 281.943C317.26 302.113 321.262 320.042 329.266 335.73C337.27 351.098 348.796 363.265 363.844 372.229C378.891 381.194 396.34 385.676 416.191 385.676C431.238 385.676 444.525 382.795 456.051 377.032C467.577 371.269 476.702 363.264 483.425 353.019C490.149 342.774 493.511 330.768 493.511 317.001L566.988 304.514C566.988 337.171 560.425 364.865 547.298 387.597C534.172 410.009 516.242 426.977 493.511 438.503C470.779 450.029 444.365 455.792 414.27 455.792ZM416.671 325.165V265.614H566.988V311.238L523.766 325.165H416.671Z" fill="#1D6FBB"/>
<path d="M643.036 343.895V272.818H708.35C722.117 272.818 733.163 268.816 741.487 260.812C749.812 252.487 753.974 241.762 753.974 228.635C753.974 219.991 751.893 212.307 747.731 205.583C743.889 198.86 738.286 193.737 730.922 190.215C723.878 186.373 715.554 184.452 705.949 184.452H643.036V113.856L707.87 113.375C732.203 113.055 753.814 117.858 772.703 127.783C791.593 137.708 806.321 151.315 816.886 168.604C827.772 185.893 833.215 205.903 833.215 228.635C833.215 250.726 827.932 270.577 817.367 288.186C807.121 305.475 792.714 319.082 774.144 329.007C755.575 338.932 734.284 343.895 710.271 343.895H643.036ZM575.802 450.029V113.856H653.122V450.029H575.802Z" fill="#1D6FBB"/>
<path d="M159.04 549.883V498.672H167.526V549.883H159.04ZM175.956 549.883V513.304H183.638L184.15 520.034V549.883H175.956ZM200.757 549.883V531.155L208.951 528.96V549.883H200.757ZM200.757 531.155C200.757 528.228 200.416 525.985 199.733 524.424C199.099 522.814 198.172 521.693 196.953 521.059C195.782 520.425 194.392 520.107 192.783 520.107C190.052 520.059 187.93 520.961 186.418 522.814C184.906 524.668 184.15 527.326 184.15 530.789H181.077C181.077 526.936 181.638 523.644 182.76 520.912C183.882 518.132 185.491 516.035 187.589 514.621C189.686 513.157 192.173 512.426 195.051 512.426C199.489 512.426 202.903 513.791 205.293 516.523C207.732 519.205 208.951 523.351 208.951 528.96L200.757 531.155ZM241.467 549.883L241.101 543.079V498.672H249.222V549.883H241.467ZM229.542 550.761C226.225 550.761 223.323 549.981 220.836 548.42C218.397 546.811 216.471 544.567 215.056 541.689C213.691 538.812 213.008 535.447 213.008 531.593C213.008 527.692 213.691 524.326 215.056 521.498C216.471 518.62 218.397 516.401 220.836 514.84C223.323 513.231 226.225 512.426 229.542 512.426C232.615 512.426 235.248 513.231 237.443 514.84C239.687 516.401 241.394 518.62 242.564 521.498C243.735 524.326 244.32 527.692 244.32 531.593C244.32 535.447 243.735 538.812 242.564 541.689C241.394 544.567 239.687 546.811 237.443 548.42C235.248 549.981 232.615 550.761 229.542 550.761ZM231.59 543.299C233.444 543.299 235.078 542.811 236.492 541.836C237.955 540.812 239.077 539.422 239.857 537.666C240.687 535.91 241.101 533.886 241.101 531.593C241.101 529.301 240.687 527.277 239.857 525.521C239.077 523.765 237.955 522.4 236.492 521.424C235.078 520.449 233.419 519.961 231.517 519.961C229.566 519.961 227.835 520.449 226.323 521.424C224.811 522.4 223.616 523.765 222.738 525.521C221.909 527.277 221.47 529.301 221.421 531.593C221.47 533.886 221.909 535.91 222.738 537.666C223.616 539.422 224.811 540.812 226.323 541.836C227.884 542.811 229.639 543.299 231.59 543.299ZM256.598 549.883L256.671 513.304H264.792L264.718 549.883H256.598ZM260.695 506.354C259.378 506.354 258.232 505.89 257.256 504.964C256.329 503.988 255.866 502.842 255.866 501.525C255.866 500.208 256.329 499.086 257.256 498.16C258.232 497.233 259.378 496.77 260.695 496.77C262.011 496.77 263.133 497.233 264.06 498.16C265.035 499.086 265.523 500.208 265.523 501.525C265.523 502.842 265.035 503.988 264.06 504.964C263.133 505.89 262.011 506.354 260.695 506.354ZM294.348 549.883L293.982 543.006V531.081C293.982 528.594 293.714 526.521 293.177 524.863C292.641 523.205 291.787 521.936 290.617 521.059C289.495 520.181 288.007 519.742 286.154 519.742C284.447 519.742 282.935 520.107 281.618 520.839C280.301 521.571 279.204 522.692 278.326 524.204L270.864 521.571C271.693 519.961 272.766 518.449 274.083 517.035C275.4 515.62 277.058 514.499 279.058 513.669C281.106 512.84 283.52 512.426 286.3 512.426C289.861 512.426 292.812 513.084 295.153 514.401C297.543 515.718 299.323 517.669 300.493 520.254C301.664 522.839 302.249 526.033 302.249 529.838L302.03 549.883H294.348ZM283.959 550.761C279.57 550.761 276.156 549.786 273.717 547.835C271.327 545.884 270.132 543.128 270.132 539.568C270.132 535.764 271.4 532.862 273.936 530.862C276.521 528.862 280.106 527.862 284.691 527.862H294.494V534.154H287.325C284.057 534.154 281.764 534.617 280.448 535.544C279.131 536.422 278.472 537.69 278.472 539.348C278.472 540.763 279.033 541.885 280.155 542.714C281.326 543.494 282.935 543.884 284.983 543.884C286.788 543.884 288.349 543.47 289.666 542.641C291.031 541.763 292.08 540.641 292.812 539.275C293.592 537.861 293.982 536.349 293.982 534.739H296.982C296.982 539.714 295.909 543.64 293.763 546.518C291.665 549.347 288.398 550.761 283.959 550.761ZM348.824 550.761C343.654 550.761 339.045 549.639 334.997 547.396C330.998 545.104 327.852 541.982 325.559 538.031C323.267 534.032 322.121 529.472 322.121 524.351C322.121 519.132 323.267 514.547 325.559 510.597C327.852 506.597 330.998 503.476 334.997 501.232C339.045 498.94 343.654 497.794 348.824 497.794C351.799 497.794 354.579 498.257 357.164 499.184C359.798 500.111 362.163 501.379 364.261 502.988C366.358 504.549 368.065 506.378 369.382 508.475L362.505 512.865C361.578 511.45 360.383 510.182 358.92 509.06C357.457 507.939 355.847 507.085 354.092 506.5C352.385 505.866 350.629 505.549 348.824 505.549C345.312 505.549 342.191 506.354 339.46 507.963C336.777 509.573 334.656 511.792 333.095 514.621C331.534 517.401 330.754 520.644 330.754 524.351C330.754 527.96 331.51 531.179 333.022 534.008C334.582 536.837 336.728 539.056 339.46 540.665C342.24 542.275 345.434 543.079 349.044 543.079C351.872 543.079 354.409 542.494 356.652 541.324C358.896 540.153 360.652 538.519 361.92 536.422C363.236 534.325 363.895 531.911 363.895 529.179L372.016 528.155C372.016 532.788 371.016 536.812 369.016 540.226C367.065 543.592 364.334 546.201 360.822 548.054C357.359 549.859 353.36 550.761 348.824 550.761ZM351.604 529.838V522.961H372.016V528.667L367.48 529.838H351.604ZM381.892 530.423C381.892 526.472 382.648 523.229 384.16 520.693C385.672 518.157 387.623 516.279 390.013 515.059C392.451 513.791 394.988 513.157 397.621 513.157V520.985C395.378 520.985 393.256 521.302 391.256 521.936C389.306 522.522 387.72 523.497 386.501 524.863C385.282 526.228 384.672 528.033 384.672 530.277L381.892 530.423ZM376.478 549.883V513.304H384.672V549.883H376.478ZM417.688 550.761C414.03 550.761 410.762 549.956 407.884 548.347C405.055 546.689 402.836 544.421 401.227 541.543C399.617 538.666 398.812 535.349 398.812 531.593C398.812 527.838 399.593 524.521 401.154 521.644C402.763 518.766 404.982 516.523 407.811 514.913C410.64 513.255 413.883 512.426 417.541 512.426C421.199 512.426 424.443 513.255 427.271 514.913C430.1 516.523 432.295 518.766 433.856 521.644C435.465 524.521 436.27 527.838 436.27 531.593C436.27 535.349 435.49 538.666 433.929 541.543C432.368 544.421 430.173 546.689 427.345 548.347C424.516 549.956 421.297 550.761 417.688 550.761ZM417.688 543.226C419.687 543.226 421.467 542.738 423.028 541.763C424.589 540.738 425.808 539.373 426.686 537.666C427.564 535.91 428.003 533.886 428.003 531.593C428.003 529.301 427.54 527.301 426.613 525.594C425.735 523.839 424.516 522.473 422.955 521.498C421.394 520.473 419.59 519.961 417.541 519.961C415.493 519.961 413.688 520.449 412.127 521.424C410.567 522.4 409.347 523.765 408.469 525.521C407.592 527.277 407.153 529.301 407.153 531.593C407.153 533.886 407.592 535.91 408.469 537.666C409.396 539.373 410.64 540.738 412.201 541.763C413.81 542.738 415.639 543.226 417.688 543.226ZM473.691 549.883L485.909 513.304H494.176L481.738 549.883H473.691ZM449.183 549.883L461.108 513.304H468.35L456.572 549.883H449.183ZM448.451 549.883L436.014 513.304H444.281L456.206 549.883H448.451ZM473.618 549.883L461.912 513.304H469.155L481.08 549.883H473.618ZM511.838 550.761C507.985 550.761 505.035 549.81 502.986 547.908C500.986 545.957 499.987 543.177 499.987 539.568V501.891H508.107V538.031C508.107 539.739 508.497 541.031 509.278 541.909C510.107 542.787 511.302 543.226 512.863 543.226C513.35 543.226 513.887 543.128 514.472 542.933C515.057 542.738 515.716 542.372 516.447 541.836L519.447 548.054C518.179 548.932 516.911 549.591 515.643 550.03C514.375 550.517 513.106 550.761 511.838 550.761ZM493.914 520.327V513.304H517.984V520.327H493.914ZM523.879 549.883L523.806 498.013H531.999L532.073 549.883H523.879ZM548.68 549.883V531.155L556.874 528.96V549.883H548.68ZM548.68 531.155C548.68 528.228 548.338 525.985 547.656 524.424C546.973 522.814 546.022 521.693 544.802 521.059C543.632 520.425 542.266 520.107 540.705 520.107C537.925 520.059 535.779 520.961 534.267 522.814C532.804 524.668 532.073 527.326 532.073 530.789H528.927C528.927 526.936 529.488 523.644 530.609 520.912C531.78 518.132 533.414 516.035 535.511 514.621C537.608 513.157 540.096 512.426 542.973 512.426C547.363 512.426 550.777 513.791 553.216 516.523C555.654 519.205 556.874 523.351 556.874 528.96L548.68 531.155ZM587.647 532.179V524.351H598.987C601.426 524.351 603.425 523.522 604.986 521.863C606.547 520.205 607.327 518.059 607.327 515.425C607.327 513.621 606.913 512.06 606.084 510.743C605.303 509.377 604.206 508.304 602.791 507.524C601.377 506.744 599.743 506.378 597.89 506.427H587.647V498.672L598.036 498.599C601.548 498.599 604.645 499.33 607.327 500.793C610.01 502.208 612.107 504.183 613.619 506.719C615.131 509.207 615.887 512.109 615.887 515.425C615.887 518.644 615.18 521.522 613.765 524.058C612.351 526.594 610.376 528.594 607.839 530.057C605.352 531.472 602.45 532.179 599.133 532.179H587.647ZM579.966 549.883V498.672H588.452V549.883H579.966ZM641.126 549.883L640.76 543.006V531.081C640.76 528.594 640.492 526.521 639.955 524.863C639.419 523.205 638.565 521.936 637.395 521.059C636.273 520.181 634.785 519.742 632.932 519.742C631.225 519.742 629.713 520.107 628.396 520.839C627.079 521.571 625.982 522.692 625.104 524.204L617.642 521.571C618.471 519.961 619.544 518.449 620.861 517.035C622.177 515.62 623.836 514.499 625.835 513.669C627.884 512.84 630.298 512.426 633.078 512.426C636.639 512.426 639.589 513.084 641.93 514.401C644.32 515.718 646.101 517.669 647.271 520.254C648.442 522.839 649.027 526.033 649.027 529.838L648.807 549.883H641.126ZM630.737 550.761C626.348 550.761 622.933 549.786 620.495 547.835C618.105 545.884 616.91 543.128 616.91 539.568C616.91 535.764 618.178 532.862 620.714 530.862C623.299 528.862 626.884 527.862 631.469 527.862H641.272V534.154H634.102C630.835 534.154 628.542 534.617 627.225 535.544C625.909 536.422 625.25 537.69 625.25 539.348C625.25 540.763 625.811 541.885 626.933 542.714C628.103 543.494 629.713 543.884 631.761 543.884C633.566 543.884 635.127 543.47 636.443 542.641C637.809 541.763 638.858 540.641 639.589 539.275C640.37 537.861 640.76 536.349 640.76 534.739H643.759C643.759 539.714 642.686 543.64 640.54 546.518C638.443 549.347 635.175 550.761 630.737 550.761ZM660.543 530.423C660.543 526.472 661.299 523.229 662.811 520.693C664.323 518.157 666.274 516.279 668.664 515.059C671.103 513.791 673.639 513.157 676.272 513.157V520.985C674.029 520.985 671.907 521.302 669.908 521.936C667.957 522.522 666.372 523.497 665.152 524.863C663.933 526.228 663.323 528.033 663.323 530.277L660.543 530.423ZM655.129 549.883V513.304H663.323V549.883H655.129ZM694.071 550.761C690.218 550.761 687.267 549.81 685.218 547.908C683.219 545.957 682.219 543.177 682.219 539.568V501.891H690.34V538.031C690.34 539.739 690.73 541.031 691.51 541.909C692.339 542.787 693.534 543.226 695.095 543.226C695.583 543.226 696.119 543.128 696.704 542.933C697.29 542.738 697.948 542.372 698.68 541.836L701.679 548.054C700.411 548.932 699.143 549.591 697.875 550.03C696.607 550.517 695.339 550.761 694.071 550.761ZM676.147 520.327V513.304H700.216V520.327H676.147ZM706.038 549.883V513.304H713.72L714.232 520.034V549.883H706.038ZM730.839 549.883V531.155L739.033 528.96V549.883H730.839ZM730.839 531.155C730.839 528.228 730.498 525.985 729.815 524.424C729.181 522.814 728.254 521.693 727.035 521.059C725.864 520.425 724.474 520.107 722.865 520.107C720.133 520.059 718.012 520.961 716.5 522.814C714.988 524.668 714.232 527.326 714.232 530.789H711.159C711.159 526.936 711.72 523.644 712.842 520.912C713.964 518.132 715.573 516.035 717.67 514.621C719.768 513.157 722.255 512.426 725.133 512.426C729.571 512.426 732.985 513.791 735.375 516.523C737.813 519.205 739.033 523.351 739.033 528.96L730.839 531.155ZM761.453 550.761C757.892 550.761 754.722 549.956 751.942 548.347C749.211 546.689 747.04 544.421 745.431 541.543C743.87 538.666 743.09 535.349 743.09 531.593C743.09 527.838 743.894 524.521 745.504 521.644C747.113 518.766 749.308 516.523 752.088 514.913C754.917 513.255 758.136 512.426 761.745 512.426C765.013 512.426 767.939 513.279 770.524 514.986C773.158 516.645 775.255 519.059 776.816 522.229C778.377 525.399 779.157 529.179 779.157 533.569H770.89C770.89 530.399 770.5 527.789 769.72 525.741C768.988 523.692 767.915 522.18 766.501 521.205C765.135 520.181 763.452 519.669 761.453 519.669C759.355 519.669 757.551 520.132 756.039 521.059C754.527 521.985 753.381 523.351 752.6 525.155C751.82 526.911 751.43 529.13 751.43 531.813C751.43 534.203 751.893 536.251 752.82 537.958C753.795 539.665 755.088 540.982 756.697 541.909C758.356 542.787 760.185 543.226 762.184 543.226C764.379 543.226 766.184 542.738 767.598 541.763C769.012 540.738 770.11 539.446 770.89 537.885L778.426 541.104C777.401 543.055 776.085 544.762 774.475 546.225C772.914 547.689 771.037 548.81 768.842 549.591C766.696 550.371 764.233 550.761 761.453 550.761ZM748.503 533.569V527.058H774.841V533.569H748.503ZM788.652 530.423C788.652 526.472 789.408 523.229 790.92 520.693C792.432 518.157 794.383 516.279 796.773 515.059C799.211 513.791 801.747 513.157 804.381 513.157V520.985C802.138 520.985 800.016 521.302 798.016 521.936C796.065 522.522 794.48 523.497 793.261 524.863C792.042 526.228 791.432 528.033 791.432 530.277L788.652 530.423ZM783.238 549.883V513.304H791.432V549.883H783.238ZM820.936 550.761C818.497 550.761 816.254 550.395 814.205 549.664C812.157 548.932 810.401 547.908 808.938 546.591C807.474 545.225 806.353 543.64 805.572 541.836L812.669 538.69C813.4 540.056 814.473 541.202 815.888 542.128C817.351 543.055 818.96 543.518 820.716 543.518C822.618 543.518 824.13 543.201 825.252 542.567C826.423 541.885 827.008 540.958 827.008 539.787C827.008 538.666 826.569 537.812 825.691 537.227C824.813 536.593 823.569 536.081 821.96 535.69L818.522 534.739C815.059 533.861 812.352 532.471 810.401 530.569C808.45 528.618 807.474 526.399 807.474 523.912C807.474 520.254 808.645 517.425 810.986 515.425C813.376 513.426 816.79 512.426 821.228 512.426C823.472 512.426 825.52 512.767 827.374 513.45C829.276 514.084 830.91 515.011 832.275 516.23C833.641 517.401 834.592 518.791 835.129 520.4L828.325 523.473C827.837 522.253 826.91 521.327 825.545 520.693C824.179 520.01 822.667 519.669 821.009 519.669C819.351 519.669 818.058 520.034 817.131 520.766C816.205 521.449 815.741 522.424 815.741 523.692C815.741 524.424 816.156 525.107 816.985 525.741C817.814 526.326 819.009 526.814 820.57 527.204L824.886 528.228C827.276 528.813 829.227 529.74 830.739 531.008C832.251 532.228 833.373 533.618 834.104 535.178C834.836 536.69 835.202 538.227 835.202 539.787C835.202 541.982 834.568 543.909 833.3 545.567C832.08 547.225 830.398 548.518 828.252 549.444C826.106 550.322 823.667 550.761 820.936 550.761Z" fill="#1D6FBB"/>
</svg>
